<?xml version="1.0" standalone="no"?>
<!DOCTYPE svg PUBLIC "-//W3C//DTD SVG 20010904//EN"
 "http://www.w3.org/TR/2001/REC-SVG-20010904/DTD/svg10.dtd">
<svg version="1.0" xmlns="http://www.w3.org/2000/svg"
 width="225.000000pt" height="225.000000pt" viewBox="0 0 225.000000 225.000000"
 preserveAspectRatio="xMidYMid meet">
<metadata>
Created by potrace 1.16, written by Peter Selinger 2001-2019
</metadata>
<g transform="translate(0.000000,225.000000) scale(0.100000,-0.100000)"
fill="#000000" stroke="none">
<path d="M2130 340 c0 -5 -12 -10 -26 -10 -24 0 -26 -3 -21 -27 3 -16 -2 -43
-12 -63 -16 -35 -16 -35 7 -45 23 -10 24 -11 6 -25 -10 -9 -15 -10 -10 -2 7
12 -6 17 -17 6 -11 -12 5 -33 20 -27 12 5 14 3 8 -6 -4 -8 -2 -17 5 -21 8 -5
10 -15 6 -26 -6 -16 -8 -16 -16 -4 -8 13 -10 13 -10 -1 0 -9 9 -27 19 -40 18
-22 20 -22 26 -6 5 12 14 16 27 11 17 -5 18 -3 9 15 -10 18 -9 21 6 22 11 0
13 3 6 6 -7 2 -13 9 -13 14 0 6 4 8 8 5 4 -2 8 4 8 14 0 10 -4 16 -8 14 -4 -3
-8 0 -8 5 0 6 6 11 13 11 8 0 7 4 -3 10 -8 5 -10 10 -4 10 16 0 25 40 14 59
-8 13 -9 11 -7 -8 1 -14 -4 -26 -13 -29 -12 -4 -13 -3 -3 10 7 8 10 17 7 20
-9 10 -13 82 -4 88 4 3 2 11 -6 18 -8 7 -14 8 -14 2z"/>
</g>
</svg>
